<svg width="24" height="20" viewBox="0 0 24 20" fill="none" xmlns="http://www.w3.org/2000/svg">
<path d="M22.4279 0H1.57205C0.703808 0 0 0.703808 0 1.57205V14.7773C0 15.6455 0.70386 16.3493 1.57205 16.3493H8.49432L10.797 19.087C11.0957 19.4421 11.536 19.6471 12.0001 19.6471C12.4641 19.6471 12.9044 19.4421 13.2031 19.087L15.5058 16.3493H22.4279C23.2961 16.3493 24 15.6455 24 14.7773V1.57205C24 0.703808 23.2961 0 22.4279 0ZM16.9738 12.5764H4.34169C3.9076 12.5764 3.55567 12.2245 3.55567 11.7904C3.55567 11.3563 3.9076 11.0044 4.34169 11.0044H16.9738C17.4079 11.0044 17.7598 11.3563 17.7598 11.7904C17.7598 12.2245 17.4079 12.5764 16.9738 12.5764ZM3.55567 8.23866C3.55567 7.80456 3.9076 7.45263 4.34169 7.45263H14.0414C14.4755 7.45263 14.8274 7.80456 14.8274 8.23866C14.8274 8.67275 14.4755 9.02468 14.0414 9.02468H4.34169C3.9076 9.02468 3.55567 8.67275 3.55567 8.23866ZM19.6583 5.47284H4.34169C3.9076 5.47284 3.55567 5.12091 3.55567 4.68681C3.55567 4.25272 3.9076 3.90079 4.34169 3.90079H19.6583C20.0924 3.90079 20.4443 4.25272 20.4443 4.68681C20.4443 5.12091 20.0924 5.47284 19.6583 5.47284Z" fill="black"/>
</svg>
