<svg width="24" height="24" viewBox="0 0 24 24" fill="currentColor" xmlns="http://www.w3.org/2000/svg">
<path fill-rule="evenodd" clip-rule="evenodd" d="M3.17236 10.6357C2.62007 10.6357 2.17236 11.0834 2.17236 11.6357V12.3659C2.17236 12.9181 2.62007 13.3659 3.17236 13.3659H10.6358V20.8295C10.6358 21.3818 11.0835 21.8295 11.6358 21.8295H12.366C12.9183 21.8295 13.366 21.3818 13.366 20.8295V13.3659H20.8296C21.3819 13.3659 21.8296 12.9181 21.8296 12.3659V11.6357C21.8296 11.0834 21.3819 10.6357 20.8296 10.6357H13.366V3.17236C13.366 2.62007 12.9183 2.17236 12.366 2.17236H11.6358C11.0835 2.17236 10.6358 2.62007 10.6358 3.17235V10.6357H3.17236Z" fill="#333333"/>
</svg>
