<svg width="118" height="31" viewBox="0 0 118 31" fill="none" xmlns="http://www.w3.org/2000/svg">
<path d="M10.38 6.18C9.44 6.46 8.57 6.68 7.77 6.84C6.97 6.98 6.22 7.05 5.52 7.05C4.88 7.05 4.38 6.92 4.02 6.66C3.66 6.4 3.48 6.01 3.48 5.49C3.48 5.05 3.63 4.63 3.93 4.23C4.23 3.83 4.69 3.47 5.31 3.15C6.05 2.79 6.99 2.49 8.13 2.25C9.27 2.01 10.6 1.89 12.12 1.89C13.14 1.89 14.03 1.96 14.79 2.1C15.55 2.22 16.15 2.37 16.59 2.55C17.17 2.79 17.57 3.07 17.79 3.39C18.03 3.69 18.15 4.04 18.15 4.44C18.15 4.94 17.97 5.35 17.61 5.67C17.25 5.99 16.67 6.15 15.87 6.15C15.39 6.15 14.89 6.12 14.37 6.06C13.87 6 13.34 5.92 12.78 5.82L10.38 6.18ZM12.45 4.56C13.47 5.84 14.26 7.33 14.82 9.03C15.4 10.71 15.69 12.47 15.69 14.31C15.69 16.23 15.42 17.95 14.88 19.47C14.36 20.97 13.52 22.16 12.36 23.04C11.2 23.9 9.66 24.33 7.74 24.33C5.38 24.33 3.61 23.67 2.43 22.35C1.25 21.03 0.66 19.22 0.66 16.92C0.66 15.8 0.8 14.85 1.08 14.07C1.38 13.29 1.77 12.7 2.25 12.3C2.73 11.88 3.25 11.67 3.81 11.67C4.33 11.67 4.72 11.83 4.98 12.15C5.26 12.45 5.4 12.88 5.4 13.44C5.4 13.9 5.32 14.41 5.16 14.97C5.02 15.51 4.95 16.04 4.95 16.56C4.95 17.9 5.18 18.88 5.64 19.5C6.12 20.1 6.88 20.4 7.92 20.4C9.3 20.4 10.27 19.84 10.83 18.72C11.41 17.58 11.7 16.03 11.7 14.07C11.7 12.65 11.55 11.26 11.25 9.9C10.95 8.54 10.47 7.15 9.81 5.73L12.45 4.56ZM33.7486 24.3C33.0686 24.3 32.5986 24.04 32.3386 23.52C32.0986 22.98 31.9586 22.13 31.9186 20.97L32.2186 21.12C31.0986 23.3 28.9786 24.39 25.8586 24.39C24.4386 24.39 23.2586 24.14 22.3186 23.64C21.3786 23.12 20.6786 22.44 20.2186 21.6C19.7786 20.74 19.5586 19.81 19.5586 18.81C19.5586 17.09 20.1586 15.73 21.3586 14.73C22.5586 13.71 24.1486 13.2 26.1286 13.2C27.4286 13.2 28.5586 13.39 29.5186 13.77C30.4786 14.15 31.2986 14.68 31.9786 15.36L31.4686 15.3C31.3286 13.28 30.8886 11.84 30.1486 10.98C29.4286 10.1 28.3986 9.66 27.0586 9.66C26.2786 9.66 25.5586 9.78 24.8986 10.02C24.2386 10.26 23.6286 10.51 23.0686 10.77C22.5286 11.01 22.0186 11.13 21.5386 11.13C21.0586 11.13 20.6786 10.97 20.3986 10.65C20.1386 10.33 20.0086 9.92 20.0086 9.42C20.0086 8.7 20.3486 8.02 21.0286 7.38C21.7286 6.74 22.6486 6.22 23.7886 5.82C24.9286 5.42 26.1686 5.22 27.5086 5.22C29.1286 5.22 30.5186 5.61 31.6786 6.39C32.8386 7.17 33.7186 8.31 34.3186 9.81C34.8386 11.09 35.2086 12.52 35.4286 14.1C35.6486 15.68 35.7586 17.37 35.7586 19.17C35.7586 20.53 35.6886 21.58 35.5486 22.32C35.4086 23.06 35.1886 23.58 34.8886 23.88C34.6086 24.16 34.2286 24.3 33.7486 24.3ZM27.1186 20.94C27.7786 20.94 28.4486 20.85 29.1286 20.67C29.8086 20.47 30.3786 20.18 30.8386 19.8C31.2986 19.42 31.5286 18.95 31.5286 18.39C31.5286 17.91 31.3286 17.52 30.9286 17.22C30.5486 16.9 30.0386 16.66 29.3986 16.5C28.7786 16.34 28.1086 16.26 27.3886 16.26C26.1686 16.26 25.2386 16.47 24.5986 16.89C23.9786 17.31 23.6686 17.87 23.6686 18.57C23.6686 19.33 23.9586 19.92 24.5386 20.34C25.1386 20.74 25.9986 20.94 27.1186 20.94ZM52.3479 10.26C52.5479 9.44 52.8979 8.7 53.3979 8.04C53.9179 7.38 54.5379 6.86 55.2579 6.48C55.9979 6.08 56.8079 5.88 57.6879 5.88C58.7279 5.88 59.6479 6.13 60.4479 6.63C61.2479 7.13 61.8779 7.95 62.3379 9.09C62.8179 10.23 63.0579 11.75 63.0579 13.65C63.0579 14.63 63.0179 15.62 62.9379 16.62C62.8579 17.62 62.7579 18.55 62.6379 19.41C62.5179 20.27 62.3879 20.99 62.2479 21.57C62.0479 22.37 61.7379 22.98 61.3179 23.4C60.9179 23.82 60.4079 24.03 59.7879 24.03C59.2679 24.03 58.8579 23.8 58.5579 23.34C58.2579 22.88 58.1079 22.22 58.1079 21.36C58.1079 20.96 58.1579 20.45 58.2579 19.83C58.3579 19.19 58.4679 18.5 58.5879 17.76C58.7079 17 58.8179 16.23 58.9179 15.45C59.0179 14.67 59.0679 13.93 59.0679 13.23C59.0679 12.19 58.8579 11.39 58.4379 10.83C58.0179 10.25 57.4279 9.96 56.6679 9.96C55.8279 9.96 55.1279 10.4 54.5679 11.28C54.0279 12.14 53.7079 13.4 53.6079 15.06C53.5279 16.54 53.4579 17.86 53.3979 19.02C53.3379 20.16 53.1879 21.1 52.9479 21.84C52.7879 22.36 52.5579 22.75 52.2579 23.01C51.9779 23.27 51.5979 23.4 51.1179 23.4C50.5779 23.4 50.1479 23.2 49.8279 22.8C49.5279 22.4 49.3579 21.77 49.3179 20.91C49.2779 20.19 49.2679 19.34 49.2879 18.36C49.3079 17.38 49.3179 16.41 49.3179 15.45C49.3379 14.47 49.3279 13.66 49.2879 13.02C49.2079 11.74 48.9779 10.8 48.5979 10.2C48.2379 9.6 47.6879 9.3 46.9479 9.3C46.0879 9.3 45.3979 9.7 44.8779 10.5C44.3779 11.3 44.0679 12.41 43.9479 13.83C43.9079 14.41 43.8879 15.13 43.8879 15.99C43.9079 16.83 43.9279 17.67 43.9479 18.51C43.9679 19.35 43.9579 20.05 43.9179 20.61C43.8979 21.81 43.7079 22.67 43.3479 23.19C43.0079 23.71 42.5279 23.97 41.9079 23.97C41.1679 23.97 40.6279 23.73 40.2879 23.25C39.9679 22.77 39.7579 22 39.6579 20.94C39.5779 20 39.5179 19.07 39.4779 18.15C39.4379 17.21 39.4179 16.28 39.4179 15.36C39.4179 14.42 39.4379 13.4 39.4779 12.3C39.5379 11.2 39.6179 10.16 39.7179 9.18C39.8379 8.18 40.0479 7.34 40.3479 6.66C40.6479 5.98 41.1479 5.64 41.8479 5.64C42.4279 5.64 42.8379 5.93 43.0779 6.51C43.3179 7.07 43.4379 7.94 43.4379 9.12C43.4379 9.52 43.4079 9.89 43.3479 10.23L43.2579 9.63C43.6579 8.33 44.2979 7.32 45.1779 6.6C46.0579 5.86 47.0379 5.49 48.1179 5.49C49.5379 5.49 50.6479 5.95 51.4479 6.87C52.2479 7.77 52.6879 9.02 52.7679 10.62L52.3479 10.26ZM68.7626 5.4C69.3026 5.4 69.7526 5.72 70.1126 6.36C70.4726 6.98 70.7226 7.97 70.8626 9.33L70.2326 9.9C70.5926 8.5 71.2626 7.43 72.2426 6.69C73.2226 5.95 74.3826 5.58 75.7226 5.58C76.9626 5.58 78.0626 5.9 79.0226 6.54C79.9826 7.18 80.7326 8.15 81.2726 9.45C81.8326 10.73 82.1126 12.34 82.1126 14.28C82.1126 17.42 81.5426 19.74 80.4026 21.24C79.2826 22.72 77.7526 23.46 75.8126 23.46C74.4126 23.46 73.3126 23.16 72.5126 22.56C71.7126 21.96 71.1526 21.23 70.8326 20.37L71.1926 20.19C71.3526 21.39 71.4826 22.58 71.5826 23.76C71.7026 24.92 71.7626 25.94 71.7626 26.82C71.7626 27.72 71.6026 28.48 71.2826 29.1C70.9626 29.72 70.4526 30.03 69.7526 30.03C69.0726 30.03 68.5626 29.77 68.2226 29.25C67.8826 28.73 67.6326 28.04 67.4726 27.18C67.3526 26.3 67.2326 25.17 67.1126 23.79C66.9926 22.41 66.8926 20.92 66.8126 19.32C66.7526 17.72 66.7226 16.16 66.7226 14.64C66.7226 13.08 66.7726 11.62 66.8726 10.26C66.9926 8.88 67.1326 7.76 67.2926 6.9C67.4326 6.4 67.6126 6.03 67.8326 5.79C68.0726 5.53 68.3826 5.4 68.7626 5.4ZM74.4926 9.03C73.4126 9.03 72.5426 9.57 71.8826 10.65C71.2426 11.71 70.9226 13.07 70.9226 14.73C70.9226 16.43 71.2426 17.7 71.8826 18.54C72.5426 19.38 73.3926 19.8 74.4326 19.8C75.6326 19.8 76.4926 19.33 77.0126 18.39C77.5526 17.43 77.8226 16.19 77.8226 14.67C77.8226 12.73 77.4926 11.31 76.8326 10.41C76.1726 9.49 75.3926 9.03 74.4926 9.03ZM92.4403 24.09C90.8403 24.09 89.4403 23.74 88.2403 23.04C87.0603 22.32 86.1403 21.3 85.4803 19.98C84.8403 18.66 84.5203 17.09 84.5203 15.27C84.5203 13.37 84.8503 11.71 85.5103 10.29C86.1703 8.87 87.1003 7.76 88.3003 6.96C89.5203 6.16 90.9303 5.76 92.5303 5.76C94.2503 5.76 95.7403 6.15 97.0003 6.93C98.2603 7.69 99.2403 8.76 99.9403 10.14C100.64 11.52 100.99 13.13 100.99 14.97C100.99 16.85 100.64 18.47 99.9403 19.83C99.2403 21.19 98.2503 22.24 96.9703 22.98C95.6903 23.72 94.1803 24.09 92.4403 24.09ZM92.8603 20.04C94.1003 20.04 95.0803 19.55 95.8003 18.57C96.5403 17.57 96.9103 16.25 96.9103 14.61C96.9103 12.95 96.5403 11.63 95.8003 10.65C95.0803 9.67 94.1003 9.18 92.8603 9.18C91.5803 9.18 90.5703 9.67 89.8303 10.65C89.0903 11.63 88.7203 12.95 88.7203 14.61C88.7203 16.25 89.0903 17.57 89.8303 18.57C90.5703 19.55 91.5803 20.04 92.8603 20.04ZM108.795 5.94H108.195C108.135 5.06 108.155 4.23 108.255 3.45C108.355 2.65 108.565 2.01 108.885 1.53C109.225 1.03 109.705 0.779999 110.325 0.779999C110.885 0.779999 111.295 0.959999 111.555 1.32C111.815 1.68 111.945 2.18 111.945 2.82C111.945 4.08 111.705 5.16 111.225 6.06L110.685 6C111.765 5.62 112.985 5.43 114.345 5.43C115.205 5.43 115.885 5.6 116.385 5.94C116.905 6.26 117.165 6.81 117.165 7.59C117.165 8.33 116.865 8.89 116.265 9.27C115.665 9.65 114.915 9.84 114.015 9.84C113.475 9.84 112.895 9.82 112.275 9.78C111.675 9.72 111.085 9.63 110.505 9.51L111.015 8.88C111.195 9.64 111.365 10.51 111.525 11.49C111.705 12.45 111.865 13.45 112.005 14.49C112.145 15.53 112.255 16.54 112.335 17.52C112.415 18.5 112.455 19.38 112.455 20.16C112.455 21.44 112.255 22.45 111.855 23.19C111.455 23.93 110.865 24.3 110.085 24.3C109.465 24.3 108.975 24.11 108.615 23.73C108.275 23.35 108.025 22.87 107.865 22.29C107.725 21.69 107.635 21.07 107.595 20.43C107.575 19.79 107.565 19.21 107.565 18.69C107.565 17.81 107.605 16.82 107.685 15.72C107.765 14.6 107.875 13.45 108.015 12.27C108.175 11.09 108.355 9.95 108.555 8.85L109.155 9.36C108.135 9.88 106.875 10.14 105.375 10.14C104.455 10.14 103.745 9.97 103.245 9.63C102.745 9.29 102.495 8.76 102.495 8.04C102.495 7.26 102.775 6.66 103.335 6.24C103.895 5.8 104.645 5.58 105.585 5.58C106.205 5.58 106.785 5.62 107.325 5.7C107.885 5.76 108.375 5.84 108.795 5.94Z" fill="#FF991A"/>
</svg>
