<svg width="30" height="30" viewBox="0 0 30 30" fill="none" xmlns="http://www.w3.org/2000/svg">
<mask id="mask0_164_877" style="mask-type:alpha" maskUnits="userSpaceOnUse" x="0" y="0" width="30" height="30">
<path d="M29.8147 0H0.782471V30H29.8147V0Z" fill="#D9D9D9"/>
</mask>
<g mask="url(#mask0_164_877)">
<path d="M8.04045 27.5C7.37513 27.5 6.80557 27.2552 6.33178 26.7656C5.858 26.276 5.62109 25.6875 5.62109 25V12.5C5.62109 11.8125 5.858 11.224 6.33178 10.7344C6.80557 10.2448 7.37513 10 8.04045 10H9.25013V7.5C9.25013 5.77083 9.83988 4.29688 11.0193 3.07812C12.1987 1.85937 13.6251 1.25 15.2985 1.25C16.9719 1.25 18.3983 1.85937 19.5778 3.07812C20.7572 4.29688 21.3469 5.77083 21.3469 7.5V10H22.5566C23.2219 10 23.7914 10.2448 24.2652 10.7344C24.739 11.224 24.9759 11.8125 24.9759 12.5V25C24.9759 25.6875 24.739 26.276 24.2652 26.7656C23.7914 27.2552 23.2219 27.5 22.5566 27.5H8.04045ZM11.6695 10H18.9276V7.5C18.9276 6.45833 18.5747 5.57292 17.869 4.84375C17.1635 4.11458 16.3066 3.75 15.2985 3.75C14.2904 3.75 13.4336 4.11458 12.7279 4.84375C12.0223 5.57292 11.6695 6.45833 11.6695 7.5V10Z" fill="black"/>
</g>
</svg>
