<svg width="16" height="18" viewBox="0 0 16 18" fill="none" xmlns="http://www.w3.org/2000/svg">
<g clip-path="url(#clip0_110_523)">
<path d="M8 8.5C6.9 8.5 5.95833 8.10833 5.175 7.325C4.39167 6.54167 4 5.6 4 4.5C4 3.4 4.39167 2.45833 5.175 1.675C5.95833 0.891667 6.9 0.5 8 0.5C9.1 0.5 10.0417 0.891667 10.825 1.675C11.6083 2.45833 12 3.4 12 4.5C12 5.6 11.6083 6.54167 10.825 7.325C10.0417 8.10833 9.1 8.5 8 8.5ZM1 17.5C0.447715 17.5 0 17.0523 0 16.5V14.7C0 14.1333 0.146 13.6127 0.438 13.138C0.73 12.6633 1.11733 12.3007 1.6 12.05C2.63333 11.5333 3.68333 11.146 4.75 10.888C5.81667 10.63 6.9 10.5007 8 10.5C9.1 10.4993 10.1833 10.6287 11.25 10.888C12.3167 11.1473 13.3667 11.5347 14.4 12.05C14.8833 12.3 15.271 12.6627 15.563 13.138C15.855 13.6133 16.0007 14.134 16 14.7V16.5C16 17.0523 15.5523 17.5 15 17.5H1Z" fill="#333333"/>
</g>
<defs>
<clipPath id="clip0_110_523">
<rect width="16" height="18" fill="white"/>
</clipPath>
</defs>
</svg>
