<svg width="28" height="28" viewBox="0 0 28 28" fill="none" xmlns="http://www.w3.org/2000/svg">
<path d="M11.4303 24.0722L9.33778 22.1566C7.29494 20.3102 5.42396 18.4146 3.72494 16.4701C2.02746 14.5273 1.17896 12.32 1.17896 9.84777C1.17896 7.7104 1.88507 5.92604 3.29712 4.49379C4.70912 3.06179 6.4838 2.3457 8.6221 2.3457C9.62253 2.3457 10.5739 2.52224 11.4761 2.87528C12.09 3.1155 12.663 3.4329 13.1952 3.8275C13.6259 4.14688 14.2272 4.14688 14.6579 3.8275C15.1901 3.4329 15.7631 3.1155 16.377 2.87528C17.2792 2.52224 18.2305 2.3457 19.2309 2.3457C21.3767 2.3457 23.168 3.06181 24.6058 4.49387C26.0436 5.92614 26.7625 7.71047 26.7625 9.84777C26.7625 12.32 25.9042 14.5322 24.1871 16.4848C22.4684 18.4392 20.568 20.3494 18.4859 22.2154L16.4524 24.1016C16.1 24.4344 15.7035 24.6791 15.2632 24.8357C14.8224 24.9924 14.3769 25.0707 13.9265 25.0707C13.4763 25.0707 13.0358 24.9875 12.6049 24.8211C12.1743 24.6547 11.7828 24.4051 11.4303 24.0722Z" fill="black" stroke="black" stroke-width="0.025"/>
</svg>
