<svg width="24" height="24" viewBox="0 0 24 24" fill="none" xmlns="http://www.w3.org/2000/svg">
<path d="M19 5H5C4.44772 5 4 5.44772 4 6V6.5C4 7.05228 4.44772 7.5 5 7.5H19C19.5523 7.5 20 7.05228 20 6.5V6C20 5.44772 19.5523 5 19 5Z" fill="#333333"/>
<path d="M19 11H5C4.44772 11 4 11.4477 4 12V12.5C4 13.0523 4.44772 13.5 5 13.5H19C19.5523 13.5 20 13.0523 20 12.5V12C20 11.4477 19.5523 11 19 11Z" fill="#333333"/>
<path d="M19 17H5C4.44772 17 4 17.4477 4 18V18.5C4 19.0523 4.44772 19.5 5 19.5H19C19.5523 19.5 20 19.0523 20 18.5V18C20 17.4477 19.5523 17 19 17Z" fill="#333333"/>
</svg>
